<?xml version="1.0" standalone="no"?>
<!DOCTYPE svg PUBLIC "-//W3C//DTD SVG 20010904//EN"
 "http://www.w3.org/TR/2001/REC-SVG-20010904/DTD/svg10.dtd">
<svg version="1.0" xmlns="http://www.w3.org/2000/svg"
 width="302.000000pt" height="302.000000pt" viewBox="0 0 302.000000 302.000000"
 preserveAspectRatio="xMidYMid meet">
<metadata>
Created by potrace 1.11, written by Peter Selinger 2001-2013
</metadata>
<g transform="translate(0.000000,302.000000) scale(0.100000,-0.100000)"
fill="#000000" stroke="none">
<path d="M922 2453 c-36 -81 -90 -259 -108 -359 -21 -110 -18 -109 -132 -51
-65 34 -161 75 -187 82 -5 1 -19 5 -30 9 -57 22 -75 27 -130 42 -64 17 -81 20
-135 30 -19 4 -44 8 -55 11 -11 2 -48 6 -81 10 -61 6 -62 5 -59 -19 6 -53 50
-252 69 -313 2 -5 4 -13 5 -17 2 -11 31 -88 47 -125 8 -17 14 -34 14 -38 0 -4
21 -51 46 -104 178 -374 482 -626 919 -760 100 -30 199 -54 285 -66 25 -4 48
-10 53 -14 8 -8 38 -117 35 -129 -1 -4 2 -19 6 -33 8 -29 14 -58 15 -76 2 -27
17 -11 19 19 2 18 7 49 12 68 5 19 11 46 14 60 3 14 8 39 11 55 8 42 23 52 80
59 100 12 131 18 205 38 119 32 266 84 280 98 3 3 50 28 104 55 54 28 104 55
110 60 6 6 29 22 51 36 70 47 202 168 256 235 72 90 173 252 169 270 -1 4 2
10 7 13 20 14 118 263 138 351 45 192 58 286 39 283 -6 -1 -33 -4 -60 -7 -77
-9 -92 -12 -214 -41 -63 -15 -127 -34 -142 -41 -15 -8 -31 -14 -35 -14 -17 1
-133 -47 -223 -91 -52 -26 -96 -46 -98 -45 -2 2 -5 16 -8 32 -2 16 -7 40 -10
54 -3 14 -8 36 -10 48 -15 76 -84 294 -107 337 -6 11 -10 24 -9 28 1 5 -9 0
-22 -10 -14 -10 -26 -21 -26 -25 0 -5 -4 -8 -10 -8 -11 0 -35 -19 -90 -70 -21
-19 -53 -49 -72 -66 -54 -50 -134 -139 -180 -201 -24 -32 -47 -62 -51 -68 -23
-28 -96 -147 -102 -165 -9 -29 -22 -25 -41 13 -24 47 -120 188 -152 225 -15
17 -43 50 -62 74 -53 65 -165 174 -244 237 -39 31 -74 59 -77 64 -3 4 -15 -14
-27 -40z"/>
</g>
</svg>
